<svg width="180" height="42" viewBox="0 0 180 42" fill="none" xmlns="http://www.w3.org/2000/svg">
<path d="M64.0089 31.7485L58.6136 21.986L57.1618 24.1874V31.7485H54.0068V9.41531H57.1618V19.1141L58.6136 16.4983L63.031 9.41531H66.7543L60.4433 19.1462L67.6694 31.7485H64.0089Z" fill="white"/>
<path d="M77.9874 9.41528H81.3321L75.9679 27.0588C75.4001 28.9092 74.6691 30.2065 73.7747 30.951C72.8808 31.6956 71.6027 32.0678 69.941 32.0678H69.1524V29.1643H70.0359C70.8774 29.1643 71.5188 28.9305 71.9605 28.4623C72.4023 27.9946 72.7916 27.1863 73.1281 26.0374L73.3806 25.2078L67.8271 9.41476H71.2035L74.8008 20.2941L77.9874 9.41476V9.41528Z" fill="white"/>
<path d="M83.9509 9.41528H94.8686V31.7485H91.6814V12.4458H87.0115C86.6537 19.954 86.3172 24.708 86.002 26.7072C85.7287 28.664 85.1449 30.0468 84.2505 30.8551C83.3567 31.6634 82.1102 32.0673 80.5112 32.0673V29.1322C81.2055 29.1322 81.7416 28.8927 82.1206 28.4141C82.4991 27.9355 82.7729 27.122 82.9408 25.9736C83.2353 23.9318 83.5718 18.412 83.9503 9.41476L83.9509 9.41528Z" fill="white"/>
<path d="M99.2861 31.7485V9.41531H102.41V19.1784C102.41 21.4333 102.294 23.5813 102.063 25.6231L102.158 25.6869C102.894 23.7301 103.42 22.4111 103.736 21.7309L109.1 9.41531H112.35V31.7485H109.226V22.0176C109.226 19.8695 109.321 17.6893 109.51 15.4769L109.415 15.4131C108.784 17.1786 108.259 18.5505 107.837 19.5289L102.505 31.7485H99.2867H99.2861Z" fill="white"/>
<path d="M122.825 18.2213C124.907 18.2213 126.533 18.8274 127.7 20.0401C128.867 21.2524 129.451 22.8903 129.451 24.9533C129.451 27.1651 128.878 28.8507 127.731 30.0101C126.585 31.1694 124.949 31.7491 122.825 31.7491H116.767V9.41589H128.252V12.4469H119.953V18.2218H122.825L122.825 18.2213ZM122.636 28.6859C123.751 28.6859 124.624 28.3722 125.255 27.7448C125.886 27.1174 126.201 26.1868 126.201 24.9533C126.201 23.7411 125.881 22.8156 125.239 22.1773C124.597 21.5391 123.73 21.2202 122.636 21.2202H119.954V28.6859H122.636Z" fill="white"/>
<path d="M132.606 31.7485V9.41531H135.73V19.1784C135.73 21.4333 135.615 23.5813 135.383 25.6231L135.478 25.6869C136.214 23.7301 136.74 22.4111 137.056 21.7309L142.42 9.41531H145.67V31.7485H142.546V22.0176C142.546 19.8695 142.641 17.6893 142.83 15.4769L142.735 15.4131C142.104 17.1786 141.578 18.5505 141.157 19.5289L135.825 31.7485H132.606H132.606Z" fill="white"/>
<path d="M159.522 9.41531H162.709V31.7485H159.522V21.9538H153.275V31.7485H150.087V9.41531H153.275V18.9228H159.522V9.41531Z" fill="white"/>
<path d="M178.201 30.1692C177.002 31.4986 175.351 32.1633 173.247 32.1633C171.144 32.1633 169.492 31.4986 168.293 30.1692C167.094 28.8398 166.495 27.0054 166.495 24.6655V16.4978C166.495 14.1579 167.094 12.3235 168.293 10.9941C169.492 9.66473 171.144 9.00003 173.247 9.00003C175.351 9.00003 177.002 9.66473 178.201 10.9941C179.401 12.3235 180 14.1579 180 16.4978V24.6655C180 27.0054 179.401 28.8398 178.201 30.1692ZM173.247 29.0047C174.383 29.0047 175.246 28.6324 175.835 27.8879C176.424 27.1433 176.718 26.069 176.718 24.6655V16.4978C176.718 15.0938 176.424 14.02 175.835 13.2754C175.246 12.5309 174.383 12.1586 173.247 12.1586C170.933 12.1586 169.777 13.6052 169.777 16.4978V24.6655C169.777 27.5581 170.933 29.0047 173.247 29.0047Z" fill="white"/>
<path fill-rule="evenodd" clip-rule="evenodd" d="M4.01255 0.000518484H23.6309C25.8381 0.000518484 27.644 1.8064 27.644 4.01358V6.91139H10.9239C8.71675 6.91139 6.91087 8.71727 6.91087 10.9245V27.6445H4.01307C1.80588 27.6445 0 25.8386 0 23.6315V4.01307C0 1.80588 1.80588 0 4.01307 0L4.01255 0.000518484Z" fill="white"/>
<path fill-rule="evenodd" clip-rule="evenodd" d="M34.5549 13.8228H37.4527C39.6599 13.8228 41.4658 15.6287 41.4658 17.8358V37.4542C41.4658 39.6614 39.6599 41.4673 37.4527 41.4673H17.8344C15.6272 41.4673 13.8213 39.6614 13.8213 37.4542V34.5564H30.5414C32.7485 34.5564 34.5544 32.7506 34.5544 30.5434V13.8233L34.5549 13.8228Z" fill="white"/>
<path fill-rule="evenodd" clip-rule="evenodd" d="M17.8344 13.8228H27.6436V23.632C27.6436 25.8392 25.8377 27.645 23.6305 27.645H13.8213V17.8359C13.8213 15.6287 15.6272 13.8228 17.8344 13.8228Z" fill="white"/>
</svg>
